BenchTwelve-Bold.ufo
<glyph name="percent" format="1">
  <advance width="2648"/>
  <unicode hex="0025"/>
  <outline>
    <contour>
      <point x="930" y="-82" type="line" smooth="yes"/>
      <point x="893" y="-82"/>
      <point x="869" y="-45"/>
      <point x="884" y="-12" type="curve" smooth="yes"/>
      <point x="1539" y="1466" type="line" smooth="yes"/>
      <point x="1557" y="1508"/>
      <point x="1601" y="1536"/>
      <point x="1647" y="1536" type="curve" smooth="yes"/>
      <point x="1715" y="1536" type="line" smooth="yes"/>
      <point x="1752" y="1536"/>
      <point x="1776" y="1499"/>
      <point x="1761" y="1466" type="curve" smooth="yes"/>
      <point x="1107" y="-12" type="line" smooth="yes"/>
      <point x="1088" y="-54"/>
      <point x="1045" y="-82"/>
      <point x="999" y="-82" type="curve" smooth="yes"/>
    </contour>
    <contour>
      <point x="577" y="751" type="curve" smooth="yes"/>
      <point x="735" y="751"/>
      <point x="817" y="863"/>
      <point x="817" y="1047" type="curve" smooth="yes"/>
      <point x="817" y="1235"/>
      <point x="737" y="1345"/>
      <point x="577" y="1345" type="curve" smooth="yes"/>
      <point x="423" y="1345"/>
      <point x="336" y="1235"/>
      <point x="336" y="1047" type="curve" smooth="yes"/>
      <point x="336" y="863"/>
      <point x="425" y="751"/>
    </contour>
    <contour>
      <point x="577" y="599" type="curve" smooth="yes"/>
      <point x="280" y="599"/>
      <point x="128" y="809"/>
      <point x="128" y="1047" type="curve" smooth="yes"/>
      <point x="128" y="1283"/>
      <point x="276" y="1497"/>
      <point x="577" y="1497" type="curve" smooth="yes"/>
      <point x="878" y="1497"/>
      <point x="1025" y="1283"/>
      <point x="1025" y="1047" type="curve" smooth="yes"/>
      <point x="1025" y="809"/>
      <point x="874" y="599"/>
    </contour>
    <contour>
      <point x="2069" y="139" type="curve" smooth="yes"/>
      <point x="2227" y="139"/>
      <point x="2310" y="250"/>
      <point x="2310" y="434" type="curve" smooth="yes"/>
      <point x="2310" y="622"/>
      <point x="2230" y="732"/>
      <point x="2069" y="732" type="curve" smooth="yes"/>
      <point x="1915" y="732"/>
      <point x="1829" y="622"/>
      <point x="1829" y="434" type="curve" smooth="yes"/>
      <point x="1829" y="250"/>
      <point x="1918" y="139"/>
    </contour>
    <contour>
      <point x="2069" y="-13" type="curve" smooth="yes"/>
      <point x="1772" y="-13"/>
      <point x="1620" y="197"/>
      <point x="1620" y="434" type="curve" smooth="yes"/>
      <point x="1620" y="670"/>
      <point x="1768" y="884"/>
      <point x="2069" y="884" type="curve" smooth="yes"/>
      <point x="2370" y="884"/>
      <point x="2518" y="670"/>
      <point x="2518" y="434" type="curve" smooth="yes"/>
      <point x="2518" y="197"/>
      <point x="2366" y="-13"/>
    </contour>
  </outline>
</glyph>
<glyph name="slash" format="1">
  <advance width="1189"/>
  <unicode hex="002F"/>
  <outline>
    <contour>
      <point x="172" y="-230" type="line" smooth="yes"/>
      <point x="139" y="-228"/>
      <point x="111" y="-215"/>
      <point x="123" y="-181" type="curve"/>
      <point x="812" y="1611" type="line" smooth="yes"/>
      <point x="822" y="1638"/>
      <point x="844" y="1647"/>
      <point x="860" y="1647" type="curve" smooth="yes"/>
      <point x="1028" y="1647" type="line" smooth="yes"/>
      <point x="1063" y="1647"/>
      <point x="1080" y="1621"/>
      <point x="1064" y="1577" type="curve" smooth="yes"/>
      <point x="386" y="-181" type="line" smooth="yes"/>
      <point x="375" y="-211"/>
      <point x="361" y="-230"/>
      <point x="322" y="-230" type="curve" smooth="yes"/>
    </contour>
  </outline>
</glyph>
<glyph name="zero" format="1">
  <advance width="2060"/>
  <unicode hex="0030"/>
  <outline>
    <contour>
      <point x="1031" y="202" type="curve" smooth="yes"/>
      <point x="1368" y="202"/>
      <point x="1544" y="329"/>
      <point x="1544" y="729" type="curve" smooth="yes"/>
      <point x="1544" y="1078"/>
      <point x="1377" y="1235"/>
      <point x="1031" y="1235" type="curve" smooth="yes"/>
      <point x="687" y="1235"/>
      <point x="516" y="1080"/>
      <point x="516" y="729" type="curve" smooth="yes"/>
      <point x="516" y="329"/>
      <point x="697" y="202"/>
    </contour>
    <contour>
      <point x="1031" y="-41" type="curve" smooth="yes"/>
      <point x="553" y="-41"/>
      <point x="137" y="129"/>
      <point x="137" y="729" type="curve" smooth="yes"/>
      <point x="137" y="1282"/>
      <point x="553" y="1475"/>
      <point x="1031" y="1475" type="curve" smooth="yes"/>
      <point x="1512" y="1475"/>
      <point x="1924" y="1282"/>
      <point x="1924" y="729" type="curve" smooth="yes"/>
      <point x="1924" y="129"/>
      <point x="1512" y="-41"/>
    </contour>
  </outline>
</glyph>
<glyph name="less" format="1">
  <advance width="1236"/>
  <unicode hex="003C"/>
  <outline>
    <contour>
      <point x="1060" y="-46" type="curve" smooth="yes"/>
      <point x="1050" y="-46"/>
      <point x="1039" y="-39"/>
      <point x="1022" y="-32" type="curve"/>
      <point x="194" y="395" type="line"/>
      <point x="151" y="415"/>
      <point x="128" y="461"/>
      <point x="128" y="503" type="curve" smooth="yes"/>
      <point x="128" y="705" type="line" smooth="yes"/>
      <point x="128" y="746"/>
      <point x="154" y="783"/>
      <point x="194" y="806" type="curve"/>
      <point x="1022" y="1252" type="line" smooth="yes"/>
      <point x="1035" y="1259"/>
      <point x="1046" y="1262"/>
      <point x="1056" y="1262" type="curve" smooth="yes"/>
      <point x="1076" y="1262"/>
      <point x="1089" y="1247"/>
      <point x="1089" y="1219" type="curve" smooth="yes"/>
      <point x="1089" y="1037" type="line" smooth="yes"/>
      <point x="1089" y="993"/>
      <point x="1064" y="968"/>
      <point x="1021" y="946" type="curve" smooth="yes"/>
      <point x="372" y="606" type="line" smooth="yes"/>
      <point x="366" y="603"/>
      <point x="363" y="598"/>
      <point x="363" y="592" type="curve" smooth="yes"/>
      <point x="363" y="587"/>
      <point x="366" y="582"/>
      <point x="372" y="579" type="curve" smooth="yes"/>
      <point x="1021" y="266" type="line" smooth="yes"/>
      <point x="1066" y="244"/>
      <point x="1089" y="211"/>
      <point x="1089" y="167" type="curve" smooth="yes"/>
      <point x="1089" y="-6" type="line" smooth="yes"/>
      <point x="1089" y="-32"/>
      <point x="1077" y="-46"/>
    </contour>
  </outline>
</glyph>
<glyph name="equal" format="1">
  <advance width="1003"/>
  <unicode hex="003D"/>
  <outline>
    <contour>
      <point x="202" y="283" type="line" smooth="yes"/>
      <point x="159" y="283"/>
      <point x="139" y="303"/>
      <point x="139" y="346" type="curve" smooth="yes"/>
      <point x="139" y="406" type="line" smooth="yes"/>
      <point x="139" y="449"/>
      <point x="159" y="469"/>
      <point x="202" y="469" type="curve" smooth="yes"/>
      <point x="801" y="469" type="line" smooth="yes"/>
      <point x="844" y="469"/>
      <point x="864" y="449"/>
      <point x="864" y="406" type="curve" smooth="yes"/>
      <point x="864" y="346" type="line" smooth="yes"/>
      <point x="864" y="303"/>
      <point x="844" y="283"/>
      <point x="801" y="283" type="curve" smooth="yes"/>
    </contour>
    <contour>
      <point x="202" y="619" type="line" smooth="yes"/>
      <point x="159" y="619"/>
      <point x="139" y="639"/>
      <point x="139" y="682" type="curve" smooth="yes"/>
      <point x="139" y="743" type="line" smooth="yes"/>
      <point x="139" y="786"/>
      <point x="159" y="806"/>
      <point x="202" y="806" type="curve" smooth="yes"/>
      <point x="801" y="806" type="line" smooth="yes"/>
      <point x="844" y="806"/>
      <point x="864" y="786"/>
      <point x="864" y="743" type="curve" smooth="yes"/>
      <point x="864" y="682" type="line" smooth="yes"/>
      <point x="864" y="639"/>
      <point x="844" y="619"/>
      <point x="801" y="619" type="curve" smooth="yes"/>
    </contour>
  </outline>
</glyph>
<glyph name="C" format="1">
  <advance width="2284"/>
  <unicode hex="0043"/>
  <outline>
    <contour>
      <point x="1192" y="-41" type="curve" smooth="yes"/>
      <point x="695" y="-41"/>
      <point x="134" y="103"/>
      <point x="134" y="720" type="curve" smooth="yes"/>
      <point x="134" y="1304"/>
      <point x="695" y="1475"/>
      <point x="1192" y="1475" type="curve" smooth="yes"/>
      <point x="1584" y="1475"/>
      <point x="2005" y="1361"/>
      <point x="2137" y="1007" type="curve" smooth="yes"/>
      <point x="2138" y="1002"/>
      <point x="2140" y="996"/>
      <point x="2140" y="990" type="curve" smooth="yes"/>
      <point x="2140" y="983"/>
      <point x="2136" y="976"/>
      <point x="2123" y="974" type="curve" smooth="yes"/>
      <point x="1999" y="957"/>
      <point x="1857" y="946"/>
      <point x="1857" y="946" type="curve"/>
      <point x="1829" y="945"/>
      <point x="1806" y="954"/>
      <point x="1789" y="981" type="curve"/>
      <point x="1669" y="1157"/>
      <point x="1465" y="1237"/>
      <point x="1192" y="1237" type="curve"/>
      <point x="834" y="1235"/>
      <point x="524" y="1093"/>
      <point x="524" y="720" type="curve" smooth="yes"/>
      <point x="524" y="297"/>
      <point x="844" y="200"/>
      <point x="1192" y="198" type="curve"/>
      <point x="1466" y="198"/>
      <point x="1678" y="259"/>
      <point x="1791" y="446" type="curve"/>
      <point x="1804" y="471"/>
      <point x="1820" y="494"/>
      <point x="1858" y="492" type="curve" smooth="yes"/>
      <point x="1860" y="492"/>
      <point x="1997" y="480"/>
      <point x="2116" y="461" type="curve"/>
      <point x="2133" y="460"/>
      <point x="2142" y="446"/>
      <point x="2144" y="431" type="curve"/>
      <point x="2144" y="422"/>
      <point x="2144" y="414"/>
      <point x="2143" y="407" type="curve"/>
      <point x="2020" y="52"/>
      <point x="1579" y="-41"/>
    </contour>
  </outline>
</glyph>
<glyph name="M" format="1">
  <advance width="2595"/>
  <unicode hex="004D"/>
  <outline>
    <contour>
      <point x="213" y="0" type="line" smooth="yes"/>
      <point x="170" y="0"/>
      <point x="144" y="27"/>
      <point x="146" y="70" type="curve"/>
      <point x="251" y="1368" type="line" smooth="yes"/>
      <point x="254" y="1410"/>
      <point x="279" y="1436"/>
      <point x="319" y="1438" type="curve"/>
      <point x="595" y="1438" type="line"/>
      <point x="637" y="1436"/>
      <point x="675" y="1412"/>
      <point x="698" y="1371" type="curve" smooth="yes"/>
      <point x="1279" y="366" type="line" smooth="yes"/>
      <point x="1282.14" y="360.573"/>
      <point x="1286.49" y="357.202"/>
      <point x="1291.33" y="357.15" type="curve" smooth="yes"/>
      <point x="1296.25" y="357.098"/>
      <point x="1300.74" y="360.491"/>
      <point x="1304" y="366" type="curve" smooth="yes"/>
      <point x="1899" y="1371" type="line" smooth="yes"/>
      <point x="1923" y="1412"/>
      <point x="1961" y="1436"/>
      <point x="2003" y="1438" type="curve"/>
      <point x="2280" y="1438" type="line"/>
      <point x="2320" y="1436"/>
      <point x="2345" y="1410"/>
      <point x="2348" y="1368" type="curve" smooth="yes"/>
      <point x="2448" y="70" type="line"/>
      <point x="2450" y="27"/>
      <point x="2425" y="0"/>
      <point x="2382" y="0" type="curve" smooth="yes"/>
      <point x="2174" y="0" type="line" smooth="yes"/>
      <point x="2131" y="0"/>
      <point x="2103" y="27"/>
      <point x="2100" y="70" type="curve" smooth="yes"/>
      <point x="2027" y="982" type="line" smooth="yes"/>
      <point x="2026.56" y="987.529"/>
      <point x="2025.03" y="991.205"/>
      <point x="2022.48" y="991.85" type="curve" smooth="yes"/>
      <point x="2019.7" y="992.553"/>
      <point x="2016.26" y="989.479"/>
      <point x="2013" y="984" type="curve" smooth="yes"/>
      <point x="1468" y="67" type="line" smooth="yes"/>
      <point x="1444" y="26"/>
      <point x="1405" y="1"/>
      <point x="1363" y="0" type="curve"/>
      <point x="1217" y="0" type="line"/>
      <point x="1174" y="1"/>
      <point x="1136" y="26"/>
      <point x="1113" y="67" type="curve" smooth="yes"/>
      <point x="585" y="974" type="line" smooth="yes"/>
      <point x="582.298" y="978.643"/>
      <point x="579.41" y="981.231"/>
      <point x="576.924" y="980.722" type="curve" smooth="yes"/>
      <point x="574.228" y="980.17"/>
      <point x="572.533" y="976.078"/>
      <point x="572" y="970" type="curve" smooth="yes"/>
      <point x="493" y="70" type="line"/>
      <point x="492" y="27"/>
      <point x="464" y="0"/>
      <point x="421" y="0" type="curve" smooth="yes"/>
    </contour>
  </outline>
</glyph>
<glyph name="V" format="1">
  <advance width="2087"/>
  <unicode hex="0056"/>
  <outline>
    <contour>
      <point x="943" y="0" type="line"/>
      <point x="900" y="2"/>
      <point x="863" y="27"/>
      <point x="839" y="67" type="curve"/>
      <point x="100" y="1371" type="line" smooth="yes"/>
      <point x="77" y="1410"/>
      <point x="91" y="1438"/>
      <point x="132" y="1438" type="curve" smooth="yes"/>
      <point x="389" y="1438" type="line" smooth="yes"/>
      <point x="433" y="1438"/>
      <point x="473" y="1413"/>
      <point x="497" y="1371" type="curve" smooth="yes"/>
      <point x="1075" y="319" type="line"/>
      <point x="1615" y="1371" type="line" smooth="yes"/>
      <point x="1636" y="1413"/>
      <point x="1676" y="1438"/>
      <point x="1720" y="1438" type="curve" smooth="yes"/>
      <point x="1947" y="1438" type="line" smooth="yes"/>
      <point x="1988" y="1438"/>
      <point x="2002" y="1410"/>
      <point x="1982" y="1371" type="curve" smooth="yes"/>
      <point x="1286" y="67" type="line" smooth="yes"/>
      <point x="1265" y="27"/>
      <point x="1229" y="2"/>
      <point x="1187" y="0" type="curve"/>
    </contour>
  </outline>
</glyph>
<glyph name="bracketleft" format="1">
  <advance width="1126"/>
  <unicode hex="005B"/>
  <outline>
    <contour>
      <point x="238" y="-107" type="line" smooth="yes"/>
      <point x="195" y="-107"/>
      <point x="161" y="-73"/>
      <point x="161" y="-30" type="curve" smooth="yes"/>
      <point x="161" y="1479" type="line" smooth="yes"/>
      <point x="161" y="1522"/>
      <point x="195" y="1556"/>
      <point x="238" y="1556" type="curve" smooth="yes"/>
      <point x="929" y="1556" type="line" smooth="yes"/>
      <point x="972" y="1556"/>
      <point x="999" y="1536"/>
      <point x="999" y="1493" type="curve" smooth="yes"/>
      <point x="999" y="1383" type="line" smooth="yes"/>
      <point x="999" y="1340"/>
      <point x="972" y="1320"/>
      <point x="929" y="1320" type="curve" smooth="yes"/>
      <point x="541" y="1320" type="line" smooth="yes"/>
      <point x="521" y="1320"/>
      <point x="511" y="1310"/>
      <point x="511" y="1290" type="curve" smooth="yes"/>
      <point x="511" y="152" type="line" smooth="yes"/>
      <point x="511" y="132"/>
      <point x="521" y="122"/>
      <point x="541" y="122" type="curve" smooth="yes"/>
      <point x="929" y="122" type="line" smooth="yes"/>
      <point x="972" y="122"/>
      <point x="999" y="102"/>
      <point x="999" y="59" type="curve" smooth="yes"/>
      <point x="999" y="-44" type="line" smooth="yes"/>
      <point x="999" y="-87"/>
      <point x="972" y="-107"/>
      <point x="929" y="-107" type="curve" smooth="yes"/>
    </contour>
  </outline>
</glyph>
<glyph name="backslash" format="1">
  <advance width="1189"/>
  <unicode hex="005C"/>
  <outline>
    <contour>
      <point x="808" y="-206" type="line" smooth="yes"/>
      <point x="786" y="-206"/>
      <point x="766" y="-192"/>
      <point x="758" y="-171" type="curve" smooth="yes"/>
      <point x="71" y="1612" type="line" smooth="yes"/>
      <point x="65" y="1629"/>
      <point x="77" y="1647"/>
      <point x="95" y="1647" type="curve" smooth="yes"/>
      <point x="359" y="1647" type="line" smooth="yes"/>
      <point x="381" y="1647"/>
      <point x="402" y="1633"/>
      <point x="409" y="1612" type="curve"/>
      <point x="1096" y="-170" type="line" smooth="yes"/>
      <point x="1102" y="-187"/>
      <point x="1090" y="-205"/>
      <point x="1072" y="-205" type="curve" smooth="yes"/>
    </contour>
  </outline>
</glyph>
<glyph name="a" format="1">
  <advance width="1780"/>
  <unicode hex="0061"/>
  <outline>
    <contour>
      <point x="725" y="-41" type="curve" smooth="yes"/>
      <point x="342" y="-41"/>
      <point x="141" y="62"/>
      <point x="139" y="238" type="curve" smooth="yes"/>
      <point x="134" y="664"/>
      <point x="1294" y="602"/>
      <point x="1294" y="640" type="curve" smooth="yes"/>
      <point x="1294" y="655" type="line" smooth="yes"/>
      <point x="1294" y="800"/>
      <point x="1217" y="882"/>
      <point x="908" y="882" type="curve" smooth="yes"/>
      <point x="824" y="882"/>
      <point x="570" y="870"/>
      <point x="483" y="785" type="curve" smooth="yes"/>
      <point x="462" y="764"/>
      <point x="434" y="740"/>
      <point x="413" y="740" type="curve" smooth="yes"/>
      <point x="407" y="740"/>
      <point x="402" y="741"/>
      <point x="393" y="742" type="curve" smooth="yes"/>
      <point x="207" y="765" type="line" smooth="yes"/>
      <point x="190" y="767"/>
      <point x="175" y="785"/>
      <point x="175" y="802" type="curve" smooth="yes"/>
      <point x="175" y="819"/>
      <point x="179" y="834"/>
      <point x="186" y="846" type="curve" smooth="yes"/>
      <point x="269" y="988"/>
      <point x="476" y="1053"/>
      <point x="905" y="1053" type="curve" smooth="yes"/>
      <point x="1403" y="1053"/>
      <point x="1636" y="924"/>
      <point x="1636" y="589" type="curve" smooth="yes"/>
      <point x="1636" y="84" type="line" smooth="yes"/>
      <point x="1636" y="30"/>
      <point x="1617" y="0"/>
      <point x="1582" y="0" type="curve" smooth="yes"/>
      <point x="1524" y="0" type="line" smooth="yes"/>
      <point x="1484" y="0"/>
      <point x="1464.93" y="36.9717"/>
      <point x="1447" y="101" type="curve" smooth="yes"/>
      <point x="1412" y="226" type="line"/>
      <point x="1408" y="244"/>
      <point x="1406" y="257"/>
      <point x="1400" y="257" type="curve" smooth="yes"/>
      <point x="1395" y="257"/>
      <point x="1390" y="239"/>
      <point x="1386" y="231" type="curve" smooth="yes"/>
      <point x="1301" y="76"/>
      <point x="1089" y="-41"/>
    </contour>
    <contour>
      <point x="768" y="128" type="curve" smooth="yes"/>
      <point x="1049" y="128"/>
      <point x="1299" y="235"/>
      <point x="1299" y="462" type="curve" smooth="yes"/>
      <point x="1299" y="476"/>
      <point x="1299" y="485"/>
      <point x="1283" y="485" type="curve" smooth="yes"/>
      <point x="1280" y="485"/>
      <point x="1149" y="478"/>
      <point x="1144" y="477" type="curve" smooth="yes"/>
      <point x="641" y="437"/>
      <point x="473" y="378"/>
      <point x="475" y="258" type="curve" smooth="yes"/>
      <point x="476" y="175"/>
      <point x="550" y="128"/>
    </contour>
  </outline>
</glyph>
<glyph name="y" format="1">
  <advance width="1664"/>
  <unicode hex="0079"/>
  <outline>
    <contour>
      <point x="497" y="-519" type="curve" smooth="yes"/>
      <point x="391" y="-519"/>
      <point x="294" y="-500"/>
      <point x="227" y="-465" type="curve" smooth="yes"/>
      <point x="206" y="-455"/>
      <point x="199" y="-443"/>
      <point x="198" y="-414" type="curve" smooth="yes"/>
      <point x="197" y="-402"/>
      <point x="199" y="-390"/>
      <point x="204" y="-378" type="curve" smooth="yes"/>
      <point x="226" y="-314" type="line"/>
      <point x="236" y="-291"/>
      <point x="262" y="-279"/>
      <point x="287" y="-279" type="curve" smooth="yes"/>
      <point x="294" y="-279"/>
      <point x="302" y="-281"/>
      <point x="309" y="-283" type="curve" smooth="yes"/>
      <point x="360" y="-300"/>
      <point x="460" y="-311"/>
      <point x="491" y="-311" type="curve" smooth="yes"/>
      <point x="509" y="-311" type="line" smooth="yes"/>
      <point x="559" y="-311"/>
      <point x="641" y="-294"/>
      <point x="695" y="-202" type="curve"/>
      <point x="701" y="-196"/>
      <point x="720" y="-161"/>
      <point x="743" y="-106" type="curve"/>
      <point x="743" y="-97"/>
      <point x="710" y="-42"/>
      <point x="704" y="-31" type="curve" smooth="yes"/>
      <point x="129" y="940" type="line" smooth="yes"/>
      <point x="121" y="952"/>
      <point x="119" y="963"/>
      <point x="119" y="973" type="curve" smooth="yes"/>
      <point x="119" y="993"/>
      <point x="134" y="1006"/>
      <point x="162" y="1006" type="curve" smooth="yes"/>
      <point x="393" y="1006" type="line" smooth="yes"/>
      <point x="436" y="1006"/>
      <point x="461" y="981"/>
      <point x="484" y="938" type="curve"/>
      <point x="864" y="265" type="line"/>
      <point x="866" y="259"/>
      <point x="873" y="253"/>
      <point x="882" y="253" type="curve" smooth="yes"/>
      <point x="890" y="253"/>
      <point x="895" y="258"/>
      <point x="901" y="270" type="curve" smooth="yes"/>
      <point x="919" y="303"/>
      <point x="1228" y="933"/>
      <point x="1228" y="934" type="curve" smooth="yes"/>
      <point x="1250" y="987"/>
      <point x="1282" y="1006"/>
      <point x="1328" y="1006" type="curve" smooth="yes"/>
      <point x="1510" y="1006" type="line" smooth="yes"/>
      <point x="1539" y="1006"/>
      <point x="1560" y="983"/>
      <point x="1561" y="957" type="curve" smooth="yes"/>
      <point x="1561" y="950"/>
      <point x="1561" y="943"/>
      <point x="1557" y="936" type="curve" smooth="yes"/>
      <point x="945" y="-231" type="line"/>
      <point x="868" y="-387"/>
      <point x="771" y="-519"/>
    </contour>
  </outline>
</glyph>
<glyph name="braceleft" format="1">
  <advance width="1012"/>
  <unicode hex="007B"/>
  <outline>
    <contour>
      <point x="700" y="-121" type="line" smooth="yes"/>
      <point x="469" y="-121"/>
      <point x="419" y="4"/>
      <point x="409" y="209" type="curve"/>
      <point x="399" y="480"/>
      <point x="368" y="570"/>
      <point x="270" y="588" type="curve"/>
      <point x="266" y="591"/>
      <point x="217" y="593"/>
      <point x="213" y="594" type="curve" smooth="yes"/>
      <point x="148" y="599"/>
      <point x="126" y="623"/>
      <point x="126" y="711" type="curve" smooth="yes"/>
      <point x="126" y="804"/>
      <point x="148" y="824"/>
      <point x="213" y="829" type="curve" smooth="yes"/>
      <point x="217" y="830"/>
      <point x="266" y="832"/>
      <point x="270" y="834" type="curve"/>
      <point x="368" y="853"/>
      <point x="399" y="942"/>
      <point x="409" y="1214" type="curve"/>
      <point x="419" y="1419"/>
      <point x="469" y="1543"/>
      <point x="700" y="1543" type="curve" smooth="yes"/>
      <point x="811" y="1543" type="line" smooth="yes"/>
      <point x="853" y="1543"/>
      <point x="888" y="1522"/>
      <point x="888" y="1480" type="curve" smooth="yes"/>
      <point x="888" y="1412" type="line" smooth="yes"/>
      <point x="888" y="1360"/>
      <point x="863" y="1343"/>
      <point x="812" y="1339" type="curve" smooth="yes"/>
      <point x="694" y="1331"/>
      <point x="663" y="1311"/>
      <point x="663" y="1152" type="curve" smooth="yes"/>
      <point x="663" y="1111" type="line" smooth="yes"/>
      <point x="663" y="967"/>
      <point x="647" y="756"/>
      <point x="516" y="725" type="curve" smooth="yes"/>
      <point x="509" y="723"/>
      <point x="506" y="717"/>
      <point x="506" y="711" type="curve" smooth="yes"/>
      <point x="506" y="705"/>
      <point x="509" y="700"/>
      <point x="516" y="698" type="curve" smooth="yes"/>
      <point x="645" y="665"/>
      <point x="663" y="456"/>
      <point x="663" y="312" type="curve" smooth="yes"/>
      <point x="663" y="271" type="line" smooth="yes"/>
      <point x="663" y="111"/>
      <point x="694" y="92"/>
      <point x="812" y="84" type="curve" smooth="yes"/>
      <point x="863" y="80"/>
      <point x="888" y="63"/>
      <point x="888" y="11" type="curve" smooth="yes"/>
      <point x="888" y="-58" type="line" smooth="yes"/>
      <point x="888" y="-100"/>
      <point x="853" y="-121"/>
      <point x="811" y="-121" type="curve" smooth="yes"/>
    </contour>
  </outline>
</glyph>
<glyph name="brokenbar" format="1">
  <advance width="546"/>
  <unicode hex="00A6"/>
  <outline>
    <contour>
      <point x="223" y="-150" type="line" smooth="yes"/>
      <point x="180" y="-150"/>
      <point x="160" y="-116"/>
      <point x="160" y="-73" type="curve" smooth="yes"/>
      <point x="160" y="509" type="line" smooth="yes"/>
      <point x="160" y="552"/>
      <point x="180" y="586"/>
      <point x="223" y="586" type="curve" smooth="yes"/>
      <point x="324" y="586" type="line" smooth="yes"/>
      <point x="367" y="586"/>
      <point x="386" y="552"/>
      <point x="386" y="509" type="curve" smooth="yes"/>
      <point x="386" y="-73" type="line" smooth="yes"/>
      <point x="386" y="-116"/>
      <point x="367" y="-150"/>
      <point x="324" y="-150" type="curve" smooth="yes"/>
    </contour>
    <contour>
      <point x="223" y="819" type="line" smooth="yes"/>
      <point x="180" y="819"/>
      <point x="160" y="853"/>
      <point x="160" y="896" type="curve" smooth="yes"/>
      <point x="160" y="1478" type="line" smooth="yes"/>
      <point x="160" y="1521"/>
      <point x="180" y="1555"/>
      <point x="223" y="1555" type="curve" smooth="yes"/>
      <point x="324" y="1555" type="line" smooth="yes"/>
      <point x="367" y="1555"/>
      <point x="386" y="1521"/>
      <point x="386" y="1478" type="curve" smooth="yes"/>
      <point x="386" y="896" type="line" smooth="yes"/>
      <point x="386" y="853"/>
      <point x="367" y="819"/>
      <point x="324" y="819" type="curve" smooth="yes"/>
    </contour>
  </outline>
</glyph>
<glyph name="guillemotleft" format="1">
  <advance width="1384"/>
  <unicode hex="00AB"/>
  <outline>
    <contour>
      <point x="658" y="169" type="curve" smooth="yes"/>
      <point x="649" y="169"/>
      <point x="638" y="173"/>
      <point x="626" y="179" type="curve"/>
      <point x="198" y="488" type="line" smooth="yes"/>
      <point x="153" y="521"/>
      <point x="126" y="546"/>
      <point x="126" y="596" type="curve" smooth="yes"/>
      <point x="126" y="688" type="line" smooth="yes"/>
      <point x="126" y="738"/>
      <point x="153" y="766"/>
      <point x="199" y="799" type="curve" smooth="yes"/>
      <point x="626" y="1097" type="line"/>
      <point x="637" y="1103"/>
      <point x="648" y="1107"/>
      <point x="658" y="1107" type="curve" smooth="yes"/>
      <point x="685" y="1107"/>
      <point x="704" y="1085"/>
      <point x="704" y="1063" type="curve" smooth="yes"/>
      <point x="704" y="979" type="line" smooth="yes"/>
      <point x="704" y="930"/>
      <point x="683" y="910"/>
      <point x="643" y="878" type="curve"/>
      <point x="346" y="665" type="line"/>
      <point x="338" y="658"/>
      <point x="335" y="653"/>
      <point x="335" y="645" type="curve" smooth="yes"/>
      <point x="335" y="636"/>
      <point x="338" y="630"/>
      <point x="346" y="623" type="curve"/>
      <point x="643" y="410" type="line"/>
      <point x="683" y="378"/>
      <point x="704" y="357"/>
      <point x="704" y="308" type="curve" smooth="yes"/>
      <point x="704" y="213" type="line" smooth="yes"/>
      <point x="704" y="191"/>
      <point x="685" y="169"/>
    </contour>
    <contour>
      <point x="1193" y="169" type="curve" smooth="yes"/>
      <point x="1183" y="169"/>
      <point x="1173" y="173"/>
      <point x="1161" y="179" type="curve"/>
      <point x="733" y="488" type="line" smooth="yes"/>
      <point x="688" y="521"/>
      <point x="661" y="546"/>
      <point x="661" y="596" type="curve" smooth="yes"/>
      <point x="661" y="688" type="line" smooth="yes"/>
      <point x="661" y="738"/>
      <point x="688" y="766"/>
      <point x="734" y="799" type="curve" smooth="yes"/>
      <point x="1160" y="1097" type="line"/>
      <point x="1172" y="1103"/>
      <point x="1183" y="1107"/>
      <point x="1192" y="1107" type="curve" smooth="yes"/>
      <point x="1218" y="1107"/>
      <point x="1238" y="1085"/>
      <point x="1238" y="1063" type="curve" smooth="yes"/>
      <point x="1238" y="979" type="line" smooth="yes"/>
      <point x="1238" y="930"/>
      <point x="1217" y="910"/>
      <point x="1177" y="878" type="curve"/>
      <point x="881" y="665" type="line"/>
      <point x="873" y="658"/>
      <point x="870" y="653"/>
      <point x="870" y="645" type="curve" smooth="yes"/>
      <point x="870" y="636"/>
      <point x="873" y="630"/>
      <point x="881" y="623" type="curve"/>
      <point x="1177" y="410" type="line"/>
      <point x="1217" y="378"/>
      <point x="1238" y="357"/>
      <point x="1238" y="308" type="curve" smooth="yes"/>
      <point x="1238" y="213" type="line" smooth="yes"/>
      <point x="1238" y="191"/>
      <point x="1218" y="169"/>
    </contour>
  </outline>
</glyph>
<glyph name="logicalnot" format="1">
  <advance width="1270"/>
  <unicode hex="00AC"/>
  <outline>
    <contour>
      <point x="941" y="200" type="line" smooth="yes"/>
      <point x="898" y="200"/>
      <point x="879" y="234"/>
      <point x="879" y="277" type="curve" smooth="yes"/>
      <point x="879" y="540" type="line" smooth="yes"/>
      <point x="879" y="560"/>
      <point x="862" y="577"/>
      <point x="842" y="577" type="curve" smooth="yes"/>
      <point x="189" y="577" type="line" smooth="yes"/>
      <point x="146" y="577"/>
      <point x="126" y="597"/>
      <point x="126" y="640" type="curve" smooth="yes"/>
      <point x="126" y="729" type="line" smooth="yes"/>
      <point x="126" y="772"/>
      <point x="146" y="792"/>
      <point x="189" y="792" type="curve" smooth="yes"/>
      <point x="1054" y="792" type="line" smooth="yes"/>
      <point x="1097" y="792"/>
      <point x="1131" y="765"/>
      <point x="1131" y="722" type="curve" smooth="yes"/>
      <point x="1131" y="277" type="line" smooth="yes"/>
      <point x="1131" y="234"/>
      <point x="1111" y="200"/>
      <point x="1068" y="200" type="curve" smooth="yes"/>
    </contour>
  </outline>
</glyph>
<glyph name="uni00B5" format="1">
  <advance width="1709"/>
  <unicode hex="00B5"/>
  <outline>
    <contour>
      <point x="223" y="-299" type="line" smooth="yes"/>
      <point x="180" y="-299"/>
      <point x="153" y="-272"/>
      <point x="153" y="-229" type="curve" smooth="yes"/>
      <point x="153" y="940" type="line" smooth="yes"/>
      <point x="153" y="983"/>
      <point x="179" y="1010"/>
      <point x="222" y="1010" type="curve" smooth="yes"/>
      <point x="423" y="1010" type="line" smooth="yes"/>
      <point x="466" y="1010"/>
      <point x="493" y="983"/>
      <point x="493" y="940" type="curve" smooth="yes"/>
      <point x="493" y="435" type="line" smooth="yes"/>
      <point x="493" y="238"/>
      <point x="627" y="154"/>
      <point x="814" y="154" type="curve" smooth="yes"/>
      <point x="1010" y="154"/>
      <point x="1226" y="302"/>
      <point x="1226" y="435" type="curve" smooth="yes"/>
      <point x="1226" y="940" type="line" smooth="yes"/>
      <point x="1226" y="983"/>
      <point x="1251" y="1010"/>
      <point x="1294" y="1010" type="curve" smooth="yes"/>
      <point x="1488" y="1010" type="line" smooth="yes"/>
      <point x="1531" y="1010"/>
      <point x="1558" y="983"/>
      <point x="1558" y="940" type="curve" smooth="yes"/>
      <point x="1558" y="77" type="line" smooth="yes"/>
      <point x="1558" y="34"/>
      <point x="1538" y="0"/>
      <point x="1495" y="0" type="curve" smooth="yes"/>
      <point x="1451" y="0" type="line" smooth="yes"/>
      <point x="1404" y="0"/>
      <point x="1374" y="18"/>
      <point x="1359" y="64" type="curve"/>
      <point x="1315" y="188" type="line"/>
      <point x="1310" y="196"/>
      <point x="1307" y="201"/>
      <point x="1299" y="201" type="curve" smooth="yes"/>
      <point x="1291" y="201"/>
      <point x="1284" y="194"/>
      <point x="1278" y="187" type="curve" smooth="yes"/>
      <point x="1148" y="26"/>
      <point x="944" y="-45"/>
      <point x="738" y="-45" type="curve" smooth="yes"/>
      <point x="637" y="-45"/>
      <point x="525" y="-24"/>
      <point x="468" y="27" type="curve"/>
      <point x="468" y="-229" type="line" smooth="yes"/>
      <point x="468" y="-272"/>
      <point x="447" y="-299"/>
      <point x="404" y="-299" type="curve" smooth="yes"/>
    </contour>
  </outline>
</glyph>
<glyph name="ordmasculine" format="1">
  <advance width="1875"/>
  <unicode hex="00BA"/>
  <outline>
    <contour>
      <point x="649" y="704" type="curve" smooth="yes"/>
      <point x="849" y="704"/>
      <point x="1005" y="805"/>
      <point x="1005" y="1008" type="curve" smooth="yes"/>
      <point x="1005" y="1216"/>
      <point x="842" y="1313"/>
      <point x="649" y="1313" type="curve" smooth="yes"/>
      <point x="454" y="1313"/>
      <point x="290" y="1215"/>
      <point x="291" y="1008" type="curve"/>
      <point x="290" y="806"/>
      <point x="446" y="704"/>
    </contour>
    <contour>
      <point x="650" y="544" type="curve" smooth="yes"/>
      <point x="375" y="544"/>
      <point x="8" y="642"/>
      <point x="8" y="1008" type="curve" smooth="yes"/>
      <point x="8" y="1378"/>
      <point x="364" y="1473"/>
      <point x="649" y="1473" type="curve" smooth="yes"/>
      <point x="931" y="1473"/>
      <point x="1287" y="1378"/>
      <point x="1287" y="1008" type="curve" smooth="yes"/>
      <point x="1287" y="643"/>
      <point x="920" y="544"/>
    </contour>
  </outline>
</glyph>
<glyph name="tilde" format="1">
  <advance width="1306"/>
  <unicode hex="02DC"/>
  <outline>
    <contour>
      <point x="421" y="709" type="curve" smooth="yes"/>
      <point x="309" y="709"/>
      <point x="223" y="764"/>
      <point x="132" y="845" type="curve"/>
      <point x="114" y="857"/>
      <point x="102" y="873"/>
      <point x="102" y="889" type="curve" smooth="yes"/>
      <point x="102" y="897"/>
      <point x="105" y="905"/>
      <point x="114" y="914" type="curve"/>
      <point x="160" y="981" type="line"/>
      <point x="170" y="999"/>
      <point x="182" y="1008"/>
      <point x="197" y="1008" type="curve" smooth="yes"/>
      <point x="210" y="1008"/>
      <point x="221" y="1000"/>
      <point x="230" y="993" type="curve" smooth="yes"/>
      <point x="303" y="936"/>
      <point x="364" y="908"/>
      <point x="423" y="908" type="curve" smooth="yes"/>
      <point x="568" y="908"/>
      <point x="713" y="1025"/>
      <point x="882" y="1025" type="curve" smooth="yes"/>
      <point x="985" y="1025"/>
      <point x="1081" y="982"/>
      <point x="1176" y="910" type="curve"/>
      <point x="1195" y="898"/>
      <point x="1206" y="887"/>
      <point x="1206" y="868" type="curve" smooth="yes"/>
      <point x="1206" y="858"/>
      <point x="1202" y="849"/>
      <point x="1196" y="839" type="curve" smooth="yes"/>
      <point x="1192" y="831"/>
      <point x="1166" y="781"/>
      <point x="1166" y="781" type="curve" smooth="yes"/>
      <point x="1156" y="763"/>
      <point x="1144" y="740"/>
      <point x="1121" y="740" type="curve" smooth="yes"/>
      <point x="1110" y="740"/>
      <point x="1100" y="744"/>
      <point x="1090" y="753" type="curve"/>
      <point x="1027" y="801"/>
      <point x="961" y="828"/>
      <point x="895" y="828" type="curve" smooth="yes"/>
      <point x="741" y="828"/>
      <point x="586" y="709"/>
    </contour>
  </outline>
</glyph>
<glyph name="quoteright" format="1">
  <advance width="611"/>
  <unicode hex="2019"/>
  <outline>
    <contour>
      <point x="207" y="877" type="curve" smooth="yes"/>
      <point x="172" y="871"/>
      <point x="139" y="886"/>
      <point x="139" y="922" type="curve" smooth="yes"/>
      <point x="139" y="944" type="line" smooth="yes"/>
      <point x="139" y="998"/>
      <point x="159" y="992"/>
      <point x="202" y="1019" type="curve" smooth="yes"/>
      <point x="271" y="1062"/>
      <point x="298" y="1139"/>
      <point x="298" y="1163" type="curve" smooth="yes"/>
      <point x="298" y="1179"/>
      <point x="296" y="1190"/>
      <point x="281" y="1190" type="curve" smooth="yes"/>
      <point x="199" y="1190" type="line" smooth="yes"/>
      <point x="161" y="1190"/>
      <point x="139" y="1208"/>
      <point x="139" y="1246" type="curve" smooth="yes"/>
      <point x="139" y="1449" type="line" smooth="yes"/>
      <point x="139" y="1492"/>
      <point x="156" y="1517"/>
      <point x="199" y="1517" type="curve" smooth="yes"/>
      <point x="418" y="1517" type="line" smooth="yes"/>
      <point x="461" y="1517"/>
      <point x="491" y="1483"/>
      <point x="491" y="1440" type="curve" smooth="yes"/>
      <point x="491" y="1264" type="line" smooth="yes"/>
      <point x="491" y="1027"/>
      <point x="345" y="900"/>
    </contour>
  </outline>
</glyph>
<glyph name="dagger" format="1">
  <advance width="1947"/>
  <unicode hex="2020"/>
  <outline>
    <contour>
      <point x="806" y="0" type="line" smooth="yes"/>
      <point x="763" y="0"/>
      <point x="734" y="29"/>
      <point x="734" y="72" type="curve" smooth="yes"/>
      <point x="734" y="1243" type="line" smooth="yes"/>
      <point x="734" y="1263"/>
      <point x="722" y="1274"/>
      <point x="702" y="1274" type="curve" smooth="yes"/>
      <point x="365" y="1274" type="line" smooth="yes"/>
      <point x="322" y="1274"/>
      <point x="293" y="1308"/>
      <point x="293" y="1351" type="curve" smooth="yes"/>
      <point x="293" y="1459" type="line" smooth="yes"/>
      <point x="293" y="1502"/>
      <point x="322" y="1536"/>
      <point x="365" y="1536" type="curve" smooth="yes"/>
      <point x="735" y="1536" type="line"/>
      <point x="735" y="1901" type="line" smooth="yes"/>
      <point x="735" y="1944"/>
      <point x="764" y="1973"/>
      <point x="807" y="1973" type="curve" smooth="yes"/>
      <point x="1140" y="1973" type="line" smooth="yes"/>
      <point x="1183" y="1973"/>
      <point x="1212" y="1944"/>
      <point x="1212" y="1901" type="curve" smooth="yes"/>
      <point x="1212" y="1536" type="line"/>
      <point x="1578" y="1536" type="line" smooth="yes"/>
      <point x="1621" y="1536"/>
      <point x="1650" y="1502"/>
      <point x="1650" y="1459" type="curve" smooth="yes"/>
      <point x="1650" y="1351" type="line" smooth="yes"/>
      <point x="1650" y="1308"/>
      <point x="1621" y="1274"/>
      <point x="1578" y="1274" type="curve" smooth="yes"/>
      <point x="1243" y="1274" type="line" smooth="yes"/>
      <point x="1223" y="1274"/>
      <point x="1211" y="1263"/>
      <point x="1211" y="1243" type="curve" smooth="yes"/>
      <point x="1211" y="72" type="line" smooth="yes"/>
      <point x="1211" y="29"/>
      <point x="1182" y="0"/>
      <point x="1139" y="0" type="curve" smooth="yes"/>
    </contour>
  </outline>
</glyph>
<glyph name="greaterequal" format="1">
  <advance width="1257"/>
  <unicode hex="2265"/>
  <outline>
    <contour>
      <point x="166" y="218" type="curve" smooth="yes"/>
      <point x="147" y="218"/>
      <point x="132" y="234"/>
      <point x="132" y="260" type="curve" smooth="yes"/>
      <point x="132" y="453" type="line" smooth="yes"/>
      <point x="132" y="497"/>
      <point x="156" y="533"/>
      <point x="200" y="555" type="curve"/>
      <point x="805" y="746" type="line" smooth="yes"/>
      <point x="811" y="748"/>
      <point x="814" y="755"/>
      <point x="814" y="760" type="curve" smooth="yes"/>
      <point x="814" y="766"/>
      <point x="812" y="773"/>
      <point x="805" y="775" type="curve" smooth="yes"/>
      <point x="200" y="985" type="line"/>
      <point x="158" y="1006"/>
      <point x="132" y="1037"/>
      <point x="132" y="1081" type="curve" smooth="yes"/>
      <point x="132" y="1288" type="line" smooth="yes"/>
      <point x="132" y="1316"/>
      <point x="148" y="1332"/>
      <point x="169" y="1332" type="curve" smooth="yes"/>
      <point x="178" y="1332"/>
      <point x="188" y="1330"/>
      <point x="199" y="1324" type="curve"/>
      <point x="1040" y="1012" type="line" smooth="yes"/>
      <point x="1084" y="996"/>
      <point x="1107" y="950"/>
      <point x="1107" y="907" type="curve" smooth="yes"/>
      <point x="1107" y="644" type="line" smooth="yes"/>
      <point x="1107" y="600"/>
      <point x="1083" y="555"/>
      <point x="1041" y="534" type="curve"/>
      <point x="199" y="230" type="line" smooth="yes"/>
      <point x="185" y="224"/>
      <point x="175" y="218"/>
    </contour>
    <contour>
      <point x="181" y="-118" type="line" smooth="yes"/>
      <point x="149" y="-118"/>
      <point x="132" y="-96"/>
      <point x="132" y="-58" type="curve" smooth="yes"/>
      <point x="132" y="48" type="line" smooth="yes"/>
      <point x="132" y="84"/>
      <point x="149" y="105"/>
      <point x="181" y="105" type="curve" smooth="yes"/>
      <point x="1054" y="105" type="line" smooth="yes"/>
      <point x="1089" y="105"/>
      <point x="1106" y="82"/>
      <point x="1106" y="44" type="curve" smooth="yes"/>
      <point x="1106" y="-52" type="line" smooth="yes"/>
      <point x="1106" y="-93"/>
      <point x="1089" y="-118"/>
      <point x="1054" y="-118" type="curve" smooth="yes"/>
    </contour>
  </outline>
</glyph>
